<svg width="320" height="175" viewBox="0 0 320 175" fill="none" xmlns="http://www.w3.org/2000/svg">
<mask id="mask0_45_1555" style="mask-type:luminance" maskUnits="userSpaceOnUse" x="0" y="1" width="318" height="143">
<path d="M304.7 1.1718L0.775528 37.6162L13.4427 143.406L317.367 106.961L304.7 1.1718Z" fill="white"/>
</mask>
<g mask="url(#mask0_45_1555)">
<path d="M48.7638 72.0635L48.0277 78.4303L55.6487 76.1145L57.3665 83.6519C57.3665 83.6519 52.4113 86.9617 47.2863 86.2248C43.8298 85.7257 40.2955 83.393 38.1474 76.9688C34.119 64.9106 44.3167 60.4777 51.1059 61.4687C53.2998 61.782 55.1396 62.6609 56.0243 64.0291L60.2748 55.754C57.9165 54.9037 55.4758 54.3021 52.9927 53.9589C45.0329 52.8153 32.7538 53.6671 27.7524 67.9485C20.6422 88.2541 35.3962 94.269 43.1901 95.3948C43.8301 95.4823 44.3916 95.5436 44.9117 95.5761C51.9221 95.9955 62.3063 95.5129 67.4575 87.9769L63.9563 69.2526L48.7638 72.0635Z" fill="#C542FD"/>
<path d="M100 71.4256C102.906 70.926 109.303 68.6688 110.37 64.1746C111.438 59.6802 102.165 58.1082 102.165 58.1082L91.8779 56.5916L86.3545 89.9663C86.3545 89.9663 88.6516 90.4063 92.2745 90.9259C93.7357 91.1388 95.4114 91.3598 97.2376 91.5718C103.596 92.3061 111.942 91.92 113.365 83.6339C114.787 75.3482 100 71.4256 100 71.4256ZM95.0355 69.3999L96.2353 61.2512L96.4246 61.2789C97.6748 61.444 104.731 62.5858 104.36 65.1095C103.95 67.8679 95.0337 69.3844 95.0337 69.3844L95.0355 69.3999ZM94.1305 75.5381C94.5208 75.5858 94.9039 75.6343 95.2825 75.6898C102.111 76.6697 107.577 78.9409 107.026 82.6991C106.449 86.6086 100.469 85.7757 100.312 85.7536L92.59 84.6003L94.1305 75.5381Z" fill="#C542FD"/>
<path d="M126.149 77.3542C125.655 77.2812 125.147 77.2192 124.631 77.1677L123.89 77.0769C115.168 75.8232 118.951 69.4785 121.157 69.425C122.708 69.3871 128.775 70.2158 132.449 70.7423C134.144 70.9865 135.333 71.1652 135.333 71.1652L136.248 61.6331L122.788 59.6494C122.788 59.6494 111.723 58.8058 111.656 69.2065C111.588 79.6074 117.947 80.4484 123.476 81.5591C129.004 82.6697 131.681 83.1489 131.698 85.7112C131.716 88.2735 128.469 88.9747 125.271 88.6872C125.169 88.6804 125.07 88.6671 124.952 88.6561C121.819 88.2063 118.237 85.0256 118.237 85.0256L115.541 90.0083C115.541 90.0083 119.531 93.6782 124.909 94.4513C125.131 94.4846 125.347 94.509 125.571 94.5325C131.28 95.08 138.363 92.2926 139.186 87.3114C140.017 82.5966 134.896 78.6082 126.149 77.3542Z" fill="#C542FD"/>
<path d="M160.243 51.9165L158.917 47.5958L123.501 51.5056L124.962 56.9253L139.699 55.4668L142.283 85.9006L151.981 85.3678L145.714 55.2748L160.243 51.9165Z" fill="#C542FD"/>
<path d="M169.239 57.4532C169.239 57.4532 155.765 55.6634 153.987 72.3903C152.96 82.2133 157.922 85.6128 162.87 86.3205C166.346 86.8204 169.807 85.9927 171.15 85.1356C174.398 83.0636 180.27 79.8048 180.375 69.8026C180.481 59.8004 169.239 57.4532 169.239 57.4532ZM174.326 70.235C173.821 74.3278 168.962 75.3831 167.424 75.1581L167.399 75.161C167.187 75.1296 166.913 75.0996 166.599 75.0553C164.585 74.7645 160.945 73.8431 161.783 68.1446C162.754 61.5575 168.821 62.4051 168.908 62.4168C172.921 63.8037 174.832 66.1483 174.328 70.2474L174.326 70.235Z" fill="#C542FD"/>
<path d="M201.641 49.3803L198.258 59.6839L189.88 50.5921L184.093 51.9003L183.224 90.4659L191.832 90.6409L190.758 59.9534L199.629 72.3602L204.118 60.5502L205.503 91.7892L214.343 90.4018L209.14 48.4242L201.641 49.3803Z" fill="#C542FD"/>
<path d="M235.47 42.946C234.69 41.0549 232.721 40.1253 230.234 39.7588C223.153 38.7431 211.862 42.4597 211.862 42.4597L215.965 74.885L223.515 74.2946L220.004 63.0596C221.306 62.283 238.49 50.2107 235.47 42.946ZM224.755 44.0859C226.254 44.3 227.424 45.045 227.597 46.7789C228.11 52.098 218.448 59.2895 218.448 59.2895L217.169 45.4525C217.169 45.4525 221.649 43.6425 224.755 44.0859Z" fill="#C542FD"/>
<path d="M251.499 61.0816C251.499 61.0816 248.912 69.0816 242.718 68.2997C242.501 68.2722 242.296 68.2463 242.098 68.2167C236.578 67.423 237.386 66.1196 237.386 66.1196L251.335 57.5856C251.335 57.5856 250.337 51.4047 244.057 50.5132C242.309 50.3004 240.535 50.4201 238.83 50.866C227.836 53.4854 228.187 64.1763 229.715 67.5184C230.929 70.1702 233.202 74.5569 238.701 75.3465C240.352 75.5584 242.026 75.4907 243.654 75.1464C252.864 73.3489 254.04 63.5051 254.04 63.5051L251.499 61.0816ZM246.816 57.258L236.557 62.9837C236.083 61.9 234.693 54.1155 240.196 53.4903C240.894 53.4031 241.602 53.4072 242.3 53.5026C243.333 53.6277 244.31 54.0485 245.111 54.7146C245.912 55.3806 246.505 56.2637 246.816 57.258Z" fill="#C542FD"/>
<path d="M288.402 58.4721L290.138 50.8325L268.198 49.242C268.198 49.242 274.171 43.4129 272.349 36.3448C271.949 34.7893 270.74 34.0017 269.055 33.7596C263.078 32.9012 251.091 38.8498 247.719 41.3963L260.031 71.7125L266.505 68.5735L261.336 59.8181L264.335 55.7317L288.402 58.4721ZM262.759 40.7017C265.597 47.1062 259.032 54.0647 259.032 54.0647L254.754 41.7309C254.754 41.7309 257.518 37.7609 260.112 38.1334C261.064 38.2493 261.996 38.9818 262.759 40.7017Z" fill="#C542FD"/>
<path d="M103.074 107.173C102.867 106.894 102.64 106.633 102.395 106.388C101.892 105.922 101.364 105.487 100.847 105.032C100.437 104.673 100.027 104.302 99.6183 103.92C99.3812 103.727 99.1621 103.512 98.9629 103.281C98.3509 102.456 97.7541 101.626 97.1682 100.783C96.5823 99.9403 96.0162 99.05 95.4213 98.2047C94.7479 97.2621 94.0737 96.3122 93.3345 95.421C92.0681 93.8911 90.6898 92.446 89.5117 90.8394C88.6095 89.6149 87.7015 88.3943 86.8433 87.1426C85.9067 85.7755 85.0862 84.3322 84.3907 82.8278C83.9024 81.7979 83.7148 80.6507 83.8496 79.5187C84.0393 78.1447 84.3379 76.7879 84.7427 75.4612C85.1627 73.9799 85.69 72.5311 86.3201 71.1263C86.7728 70.1395 87.2333 69.156 87.7014 68.1758C87.792 68.0079 87.8314 67.8172 87.8149 67.6271C87.7982 67.437 87.7263 67.2561 87.608 67.1064C87.2735 66.6753 86.8534 66.3181 86.3743 66.0572C85.4177 65.4999 84.4041 65.0469 83.3509 64.706C81.0582 63.9257 78.7149 63.3025 76.3374 62.841C75.178 62.5729 73.9895 62.4519 72.8 62.4807C72.5046 62.5077 72.213 62.566 71.9299 62.6544C71.8224 62.6789 71.7259 62.7381 71.6553 62.8228C71.5847 62.9076 71.5438 63.0131 71.539 63.1234C71.4757 63.9091 71.4117 64.6886 71.3483 65.4743C71.2963 66.1704 71.2727 66.8664 71.2113 67.5636C71.1132 68.7158 71.0316 69.8754 70.8758 71.0188C70.731 72.1618 70.5275 73.2965 70.2661 74.4185C69.9913 75.5415 69.6193 76.6415 69.2373 77.7363C68.97 78.5192 68.6514 79.2835 68.2835 80.0244C67.978 80.583 67.6318 81.1184 67.2476 81.6261C66.4195 82.8214 65.6828 84.0776 65.0438 85.384C64.4912 86.4358 64.0749 87.5539 63.8052 88.7112C63.6652 89.3002 63.6554 89.9128 63.7764 90.5056C63.8975 91.0992 64.1466 91.6594 64.5061 92.1456C65.0788 92.9132 65.7487 93.6024 66.4989 94.1969C67.1995 94.7904 67.929 95.3614 68.6304 95.9613C69.5909 96.7705 70.4862 97.6545 71.3079 98.6043C72.1219 99.4947 72.8462 100.463 73.4705 101.495C73.8958 102.286 74.4494 102.999 75.1085 103.608C75.5597 104.01 75.9897 104.448 76.4476 104.828C76.7456 105.081 77.0846 105.283 77.3963 105.52C77.5445 105.622 77.6787 105.744 77.7952 105.881C78.276 106.505 78.7422 107.139 79.217 107.765C79.6728 108.376 80.3405 108.794 81.0887 108.937C81.2851 108.992 81.4913 109.007 81.6935 108.977C81.8957 108.947 82.0892 108.874 82.2612 108.764C82.4935 108.601 82.7019 108.396 82.9456 108.197L83.0867 108.429C83.4918 109.204 84.1157 109.842 84.8806 110.264C85.2172 110.457 85.5998 110.552 85.987 110.542C86.3742 110.531 86.7512 110.416 87.0771 110.206C87.0962 110.19 87.1182 110.178 87.142 110.171C87.1658 110.163 87.1907 110.161 87.2154 110.163C87.2401 110.166 87.2641 110.174 87.2858 110.186C87.3075 110.199 87.3266 110.215 87.3418 110.235C87.8003 110.652 88.3646 110.936 88.9732 111.056C89.3525 111.14 89.7454 111.14 90.1247 111.057C90.5041 110.973 90.8602 110.808 91.1694 110.572C91.4091 110.395 91.3929 110.391 91.6264 110.574C92.0789 110.967 92.6143 111.253 93.193 111.41C94.2684 111.665 95.223 111.482 95.945 110.573C96.0352 110.458 96.1064 110.5 96.2019 110.564C96.9591 111.09 97.8632 111.36 98.7844 111.338C99.4226 111.334 100.058 111.249 100.675 111.083C101.975 110.719 102.886 109.939 103.255 108.6C103.381 108.103 103.429 107.612 103.074 107.173ZM77.7274 70.1972C72.0342 68.2115 72.4704 65.4499 73.0238 64.4983C73.5773 63.5467 76.7927 64.0087 80.4623 65.0524C84.132 66.0962 85.9794 66.908 85.5447 67.8516C85.1099 68.7953 84.6266 72.369 77.7274 70.1972Z" fill="#C542FD"/>
<path d="M81.6059 68.1686C81.4631 68.5007 80.0542 69.117 78.6252 68.6457C77.6181 68.3065 76.705 67.0424 76.8803 66.7191C77.0556 66.3956 78.5216 65.993 79.7007 66.3493C80.8798 66.7057 81.7518 67.836 81.6059 68.1686Z" fill="#C542FD"/>
</g>
<path d="M229.939 83.8489L220.914 86.2782L221.44 96.2934L230.458 96.2735L231.661 93.1037L224.884 93.7676L224.583 92.2404L231.422 90.5851L230.797 88.2585L224.151 90.2225L223.919 88.1399L230.227 85.7306L229.939 83.8489Z" fill="#C542FD"/>
<path d="M236.503 82.7943C234.805 82.5399 232.354 83.55 232.354 83.55L233.542 96.0677C233.542 96.0677 240.458 94.2943 240.341 89.4224C240.224 84.5509 238.191 83.0514 236.494 82.797L236.503 82.7943ZM237.706 88.49C237.935 90.9675 235.427 91.7297 235.427 91.7297L235.03 86.2225C235.03 86.2225 237.478 86.0124 237.706 88.49Z" fill="#C542FD"/>
<path d="M241.714 85.5808L241.455 93.9353L244.8 93.035L244.457 85.291L241.714 85.5808Z" fill="#C542FD"/>
<path d="M241.634 84.0985C242.755 83.7969 243.463 82.8075 243.216 81.8887C242.969 80.97 241.861 80.4698 240.74 80.7714C239.619 81.0732 238.91 82.0625 239.157 82.9812C239.404 83.9 240.513 84.4003 241.634 84.0985Z" fill="#C542FD"/>
<path d="M257.309 80.9401L259.788 88.5358L256.324 89.4024L254.789 82.0667L257.309 80.9401Z" fill="#C542FD"/>
<path d="M256.134 79.8305C257.255 79.5287 257.963 78.5395 257.716 77.6207C257.469 76.702 256.361 76.2017 255.24 76.5034C254.119 76.8051 253.41 77.7944 253.657 78.7132C253.904 79.6319 255.013 80.1321 256.134 79.8305Z" fill="#C542FD"/>
<path d="M243.966 80.2505L244.375 83.3581L247.618 82.4852L248.043 92.1655L251.367 91.1841L250.202 81.6035L253.224 79.9039L251.906 77.4021L243.966 80.2505Z" fill="#C542FD"/>
<path d="M277.705 84.026L272.825 71.8122L276.325 70.5092L284.543 76.8774L283.673 67.5353L287.425 67.0507L288.417 81.5257L284.256 82.2406L277.844 75.1455L281.256 83.4425L277.705 84.026Z" fill="#C542FD"/>
<path d="M273.934 76.5082C272.383 72.1212 265.723 73.1805 265.723 73.1805C265.723 73.1805 257.894 74.8938 259.595 82.5239C261.296 90.154 269.763 86.4194 271.25 84.9137C272.737 83.4079 275.498 80.9028 273.947 76.5157L273.934 76.5082ZM267.55 81.2365C266.648 81.4242 263.787 82.293 263.266 79.2155C262.745 76.1381 266.331 75.4027 266.331 75.4027C268.798 75.2639 270.248 75.9354 270.622 77.8157C270.996 79.696 268.443 81.0616 267.55 81.2365Z" fill="#C542FD"/>
<path d="M155.816 102.026C158.736 102.307 162.642 98.4799 162.218 95.6827C161.532 91.1859 149.117 85.8758 141.236 91.1092C136.873 94.0093 133.744 100.225 135.459 104.738C137.804 110.89 147.826 110.288 148.229 114.57C148.511 117.573 143.935 121.68 140.41 121.094C134.432 120.092 134.944 106.222 128.638 105.041C125.528 104.461 121.906 107.193 120.65 110.137C117.609 117.279 125.961 131.602 137.765 132.626C148.082 133.53 158.155 124.025 157.534 117.456C156.884 110.633 144.781 107.764 145.83 102.217C146.199 100.282 148.104 98.3654 149.853 98.2797C152.322 98.1597 153.15 101.766 155.826 102.028L155.816 102.026Z" fill="#C542FD"/>
<path d="M178.479 107.032C175.332 120.082 173.768 126.605 176.754 128.751C179.649 130.833 185.464 128.474 188.804 125.488C197.188 118.007 195.078 102.127 191.516 100.994C190.047 100.523 187.73 102.389 186.802 104.437C184.874 108.68 189.636 112.129 188.289 117.193C187.172 121.395 182.546 124.08 181.479 123.367C180.11 122.45 184.957 116.208 182.997 108.294C182.506 106.313 181.37 103.348 180.285 103.411C179.356 103.467 178.788 105.696 178.469 107.023L178.479 107.032Z" fill="#C542FD"/>
<path d="M155.814 102.025C158.734 102.306 162.64 98.4791 162.217 95.6818C161.531 91.185 149.116 85.875 141.234 91.1083C136.872 94.0084 133.743 100.224 135.457 104.737C137.802 110.889 147.825 110.287 148.228 114.569C148.51 117.572 143.933 121.679 140.408 121.093C134.431 120.092 134.942 106.221 128.636 105.04C125.527 104.46 121.905 107.192 120.648 110.136C117.608 117.278 125.959 131.601 137.763 132.625C148.08 133.53 158.153 124.025 157.532 117.455C156.882 110.632 144.779 107.763 145.828 102.216C146.198 100.281 148.102 98.3645 149.851 98.2788C152.32 98.1588 153.148 101.765 155.824 102.027L155.814 102.025Z" fill="#C542FD"/>
<path d="M178.479 107.031C175.332 120.081 173.768 126.604 176.754 128.75C179.649 130.832 185.464 128.473 188.804 125.487C197.188 118.006 195.078 102.126 191.516 100.993C190.047 100.522 187.73 102.389 186.802 104.436C184.874 108.68 189.636 112.128 188.289 117.192C187.172 121.394 182.546 124.079 181.479 123.366C180.11 122.45 184.957 116.207 182.997 108.293C182.506 106.313 181.37 103.347 180.285 103.411C179.356 103.467 178.788 105.696 178.469 107.022L178.479 107.031Z" fill="#C542FD"/>
<path d="M171.717 101.808C171.179 101.33 168.463 99.0653 165.463 99.7428C159.752 101.029 155.374 112.43 160.224 117.826C162.868 120.771 168.04 121.712 171.438 119.695C176.923 116.437 176.602 106.115 171.717 101.808ZM169.255 112.095C167.508 113.487 162.008 112.186 161.277 108.332C160.62 104.857 164.253 101.606 166.432 101.95C169.489 102.426 171.525 110.298 169.266 112.104L169.255 112.095Z" fill="#C542FD"/>
<path d="M209.888 93.0378C204.632 91.9616 199.848 96.5847 198.323 100.656C196.517 105.493 200.065 107.489 199.05 113.521C197.663 121.773 189.819 125.105 191.298 128.047C192.191 129.825 196.021 130.526 198.181 129.146C201.525 126.993 199.063 120.992 203.221 117.385C204.594 116.193 206.674 115.276 207.464 115.922C209.094 117.249 203.488 123.866 205.918 127.819C207.007 129.579 209.577 130.635 211.414 130.012C216.518 128.28 217.732 112.935 213.041 110.268C211.186 109.214 208.621 110.257 208.472 109.724C208.222 108.832 215.977 107.74 217.332 103.606C218.494 100.049 214.975 94.0805 209.878 93.0378H209.888ZM206.49 105.949C204.525 105.822 203.345 103.986 203.209 103.756C203.125 103.622 201.919 101.62 203.008 99.9196C204.807 97.1124 211.819 96.7849 213.129 98.6847C214.532 100.707 210.057 106.19 206.49 105.949Z" fill="#C542FD"/>
<mask id="mask1_45_1555" style="mask-type:luminance" maskUnits="userSpaceOnUse" x="0" y="1" width="318" height="143">
<path d="M304.7 1.1718L0.775528 37.6162L13.4427 143.406L317.367 106.961L304.7 1.1718Z" fill="white"/>
</mask>
<g mask="url(#mask1_45_1555)">
<path d="M48.7638 72.0635L48.0277 78.4303L55.6487 76.1145L57.3665 83.6519C57.3665 83.6519 52.4113 86.9617 47.2863 86.2248C43.8298 85.7257 40.2955 83.393 38.1474 76.9688C34.119 64.9106 44.3167 60.4777 51.1059 61.4687C53.2998 61.782 55.1396 62.6609 56.0243 64.0291L60.2748 55.754C57.9165 54.9037 55.4758 54.3021 52.9927 53.9589C45.0329 52.8153 32.7538 53.6671 27.7524 67.9485C20.6422 88.2541 35.3962 94.269 43.1901 95.3948C43.8301 95.4823 44.3916 95.5436 44.9117 95.5761C51.9221 95.9955 62.3063 95.5129 67.4575 87.9769L63.9563 69.2526L48.7638 72.0635Z" fill="#D7FE1E"/>
<path d="M100 71.4256C102.906 70.926 109.303 68.6688 110.37 64.1746C111.438 59.6802 102.165 58.1082 102.165 58.1082L91.8779 56.5916L86.3545 89.9663C86.3545 89.9663 88.6516 90.4063 92.2745 90.9259C93.7357 91.1388 95.4114 91.3598 97.2376 91.5718C103.596 92.3061 111.942 91.92 113.365 83.6339C114.787 75.3482 100 71.4256 100 71.4256ZM95.0355 69.3999L96.2353 61.2512L96.4246 61.2789C97.6748 61.444 104.731 62.5858 104.36 65.1095C103.95 67.8679 95.0337 69.3844 95.0337 69.3844L95.0355 69.3999ZM94.1305 75.5381C94.5208 75.5858 94.9039 75.6343 95.2825 75.6898C102.111 76.6697 107.577 78.9409 107.026 82.6991C106.449 86.6086 100.469 85.7757 100.312 85.7536L92.59 84.6003L94.1305 75.5381Z" fill="#D7FE1E"/>
<path d="M126.149 77.3542C125.655 77.2812 125.147 77.2192 124.631 77.1677L123.89 77.0769C115.168 75.8232 118.951 69.4785 121.157 69.425C122.708 69.3871 128.775 70.2158 132.449 70.7423C134.144 70.9865 135.333 71.1652 135.333 71.1652L136.248 61.6331L122.788 59.6494C122.788 59.6494 111.723 58.8058 111.656 69.2065C111.588 79.6074 117.947 80.4484 123.476 81.5591C129.004 82.6697 131.681 83.1489 131.698 85.7112C131.716 88.2735 128.469 88.9747 125.271 88.6872C125.169 88.6804 125.07 88.6671 124.952 88.6561C121.819 88.2063 118.237 85.0256 118.237 85.0256L115.541 90.0083C115.541 90.0083 119.531 93.6782 124.909 94.4513C125.131 94.4846 125.347 94.509 125.571 94.5325C131.28 95.08 138.363 92.2926 139.186 87.3114C140.017 82.5966 134.896 78.6082 126.149 77.3542Z" fill="#D7FE1E"/>
<path d="M160.243 51.9165L158.917 47.5958L123.501 51.5056L124.962 56.9253L139.699 55.4668L142.283 85.9006L151.981 85.3678L145.714 55.2748L160.243 51.9165Z" fill="#D7FE1E"/>
<path d="M169.239 57.4532C169.239 57.4532 155.765 55.6634 153.987 72.3903C152.96 82.2133 157.922 85.6128 162.87 86.3205C166.346 86.8204 169.807 85.9927 171.15 85.1356C174.398 83.0636 180.27 79.8048 180.375 69.8026C180.481 59.8004 169.239 57.4532 169.239 57.4532ZM174.326 70.235C173.821 74.3278 168.962 75.3831 167.424 75.1581L167.399 75.161C167.187 75.1296 166.913 75.0996 166.599 75.0553C164.585 74.7645 160.945 73.8431 161.783 68.1446C162.754 61.5575 168.821 62.4051 168.908 62.4168C172.921 63.8037 174.832 66.1483 174.328 70.2474L174.326 70.235Z" fill="#D7FE1E"/>
<path d="M201.641 49.3803L198.258 59.6839L189.88 50.5921L184.093 51.9003L183.224 90.4659L191.832 90.6409L190.758 59.9534L199.629 72.3602L204.118 60.5502L205.503 91.7892L214.343 90.4018L209.14 48.4242L201.641 49.3803Z" fill="#D7FE1E"/>
<path d="M235.47 42.946C234.69 41.0549 232.721 40.1253 230.234 39.7588C223.153 38.7431 211.862 42.4597 211.862 42.4597L215.965 74.885L223.515 74.2946L220.004 63.0596C221.306 62.283 238.49 50.2107 235.47 42.946ZM224.755 44.0859C226.254 44.3 227.424 45.045 227.597 46.7789C228.11 52.098 218.448 59.2895 218.448 59.2895L217.169 45.4525C217.169 45.4525 221.649 43.6425 224.755 44.0859Z" fill="#D7FE1E"/>
<path d="M251.499 61.0816C251.499 61.0816 248.912 69.0816 242.718 68.2997C242.501 68.2722 242.296 68.2463 242.098 68.2167C236.578 67.423 237.386 66.1196 237.386 66.1196L251.335 57.5856C251.335 57.5856 250.337 51.4047 244.057 50.5132C242.309 50.3004 240.535 50.4201 238.83 50.866C227.836 53.4854 228.187 64.1763 229.715 67.5184C230.929 70.1702 233.202 74.5569 238.701 75.3465C240.352 75.5584 242.026 75.4907 243.654 75.1464C252.864 73.3489 254.04 63.5051 254.04 63.5051L251.499 61.0816ZM246.816 57.258L236.557 62.9837C236.083 61.9 234.693 54.1155 240.196 53.4903C240.894 53.4031 241.602 53.4072 242.3 53.5026C243.333 53.6277 244.31 54.0485 245.111 54.7146C245.912 55.3806 246.505 56.2637 246.816 57.258Z" fill="#D7FE1E"/>
<path d="M288.402 58.4721L290.138 50.8325L268.198 49.242C268.198 49.242 274.171 43.4129 272.349 36.3448C271.949 34.7893 270.74 34.0017 269.055 33.7596C263.078 32.9012 251.091 38.8498 247.719 41.3963L260.031 71.7125L266.505 68.5735L261.336 59.8181L264.335 55.7317L288.402 58.4721ZM262.759 40.7017C265.597 47.1062 259.032 54.0647 259.032 54.0647L254.754 41.7309C254.754 41.7309 257.518 37.7609 260.112 38.1334C261.064 38.2493 261.996 38.9818 262.759 40.7017Z" fill="#D7FE1E"/>
<path d="M103.074 107.173C102.867 106.894 102.64 106.633 102.395 106.388C101.892 105.922 101.364 105.487 100.847 105.032C100.437 104.673 100.027 104.302 99.6183 103.92C99.3812 103.727 99.1621 103.512 98.9629 103.281C98.3509 102.456 97.7541 101.626 97.1682 100.783C96.5823 99.9403 96.0162 99.05 95.4213 98.2047C94.7479 97.2621 94.0737 96.3122 93.3345 95.421C92.0681 93.8911 90.6898 92.446 89.5117 90.8394C88.6095 89.6149 87.7015 88.3943 86.8433 87.1426C85.9067 85.7755 85.0862 84.3322 84.3907 82.8278C83.9024 81.7979 83.7148 80.6507 83.8496 79.5187C84.0393 78.1447 84.3379 76.7879 84.7427 75.4612C85.1627 73.9799 85.69 72.5311 86.3201 71.1263C86.7728 70.1395 87.2333 69.156 87.7014 68.1758C87.792 68.0079 87.8314 67.8172 87.8149 67.6271C87.7982 67.437 87.7263 67.2561 87.608 67.1064C87.2735 66.6753 86.8534 66.3181 86.3743 66.0572C85.4177 65.4999 84.4041 65.0469 83.3509 64.706C81.0582 63.9257 78.7149 63.3025 76.3374 62.841C75.178 62.5729 73.9895 62.4519 72.8 62.4807C72.5046 62.5077 72.213 62.566 71.9299 62.6544C71.8224 62.6789 71.7259 62.7381 71.6553 62.8228C71.5847 62.9076 71.5438 63.0131 71.539 63.1234C71.4757 63.9091 71.4117 64.6886 71.3483 65.4743C71.2963 66.1704 71.2727 66.8664 71.2113 67.5636C71.1132 68.7158 71.0316 69.8754 70.8758 71.0188C70.731 72.1618 70.5275 73.2965 70.2661 74.4185C69.9913 75.5415 69.6193 76.6415 69.2373 77.7363C68.97 78.5192 68.6514 79.2835 68.2835 80.0244C67.978 80.583 67.6318 81.1184 67.2476 81.6261C66.4195 82.8214 65.6828 84.0776 65.0438 85.384C64.4912 86.4358 64.0749 87.5539 63.8052 88.7112C63.6652 89.3002 63.6554 89.9128 63.7764 90.5056C63.8975 91.0992 64.1466 91.6594 64.5061 92.1456C65.0788 92.9132 65.7487 93.6024 66.4989 94.1969C67.1995 94.7904 67.929 95.3614 68.6304 95.9613C69.5909 96.7705 70.4862 97.6545 71.3079 98.6043C72.1219 99.4947 72.8462 100.463 73.4705 101.495C73.8958 102.286 74.4494 102.999 75.1085 103.608C75.5597 104.01 75.9897 104.448 76.4476 104.828C76.7456 105.081 77.0846 105.283 77.3963 105.52C77.5445 105.622 77.6787 105.744 77.7952 105.881C78.276 106.505 78.7422 107.139 79.217 107.765C79.6728 108.376 80.3405 108.794 81.0887 108.937C81.2851 108.992 81.4913 109.007 81.6935 108.977C81.8957 108.947 82.0892 108.874 82.2612 108.764C82.4935 108.601 82.7019 108.396 82.9456 108.197L83.0867 108.429C83.4918 109.204 84.1157 109.842 84.8806 110.264C85.2172 110.457 85.5998 110.552 85.987 110.542C86.3742 110.531 86.7512 110.416 87.0771 110.206C87.0962 110.19 87.1182 110.178 87.142 110.171C87.1658 110.163 87.1907 110.161 87.2154 110.163C87.2401 110.166 87.2641 110.174 87.2858 110.186C87.3075 110.199 87.3266 110.215 87.3418 110.235C87.8003 110.652 88.3646 110.936 88.9732 111.056C89.3525 111.14 89.7454 111.14 90.1247 111.057C90.5041 110.973 90.8602 110.808 91.1694 110.572C91.4091 110.395 91.3929 110.391 91.6264 110.574C92.0789 110.967 92.6143 111.253 93.193 111.41C94.2684 111.665 95.223 111.482 95.945 110.573C96.0352 110.458 96.1064 110.5 96.2019 110.564C96.9591 111.09 97.8632 111.36 98.7844 111.338C99.4226 111.334 100.058 111.249 100.675 111.083C101.975 110.719 102.886 109.939 103.255 108.6C103.381 108.103 103.429 107.612 103.074 107.173ZM77.7274 70.1972C72.0342 68.2115 72.4704 65.4499 73.0238 64.4983C73.5773 63.5467 76.7927 64.0087 80.4623 65.0524C84.132 66.0962 85.9794 66.908 85.5447 67.8516C85.1099 68.7953 84.6266 72.369 77.7274 70.1972Z" fill="#D7FE1E"/>
<path d="M81.6059 68.1686C81.4631 68.5007 80.0542 69.117 78.6252 68.6457C77.6181 68.3065 76.705 67.0424 76.8803 66.7191C77.0556 66.3956 78.5216 65.993 79.7007 66.3493C80.8798 66.7057 81.7518 67.836 81.6059 68.1686Z" fill="#D7FE1E"/>
</g>
<path d="M229.939 83.8489L220.914 86.2782L221.44 96.2934L230.458 96.2735L231.661 93.1037L224.884 93.7676L224.583 92.2404L231.422 90.5851L230.797 88.2585L224.151 90.2225L223.919 88.1399L230.227 85.7306L229.939 83.8489Z" fill="#D7FE1E"/>
<path d="M236.503 82.7943C234.805 82.5399 232.354 83.55 232.354 83.55L233.542 96.0677C233.542 96.0677 240.458 94.2943 240.341 89.4224C240.224 84.5509 238.191 83.0514 236.494 82.797L236.503 82.7943ZM237.706 88.49C237.935 90.9675 235.427 91.7297 235.427 91.7297L235.03 86.2225C235.03 86.2225 237.478 86.0124 237.706 88.49Z" fill="#D7FE1E"/>
<path d="M241.714 85.5808L241.455 93.9353L244.8 93.035L244.457 85.291L241.714 85.5808Z" fill="#D7FE1E"/>
<path d="M241.634 84.0985C242.755 83.7969 243.463 82.8075 243.216 81.8887C242.969 80.97 241.861 80.4698 240.74 80.7714C239.619 81.0732 238.91 82.0625 239.157 82.9812C239.404 83.9 240.513 84.4003 241.634 84.0985Z" fill="#D7FE1E"/>
<path d="M257.309 80.9401L259.788 88.5358L256.324 89.4024L254.789 82.0667L257.309 80.9401Z" fill="#D7FE1E"/>
<path d="M256.134 79.8305C257.255 79.5287 257.963 78.5395 257.716 77.6207C257.469 76.702 256.361 76.2017 255.24 76.5034C254.119 76.8051 253.41 77.7944 253.657 78.7132C253.904 79.6319 255.013 80.1321 256.134 79.8305Z" fill="#D7FE1E"/>
<path d="M243.966 80.2505L244.375 83.3581L247.618 82.4852L248.043 92.1655L251.367 91.1841L250.202 81.6035L253.224 79.9039L251.906 77.4021L243.966 80.2505Z" fill="#D7FE1E"/>
<path d="M277.705 84.026L272.825 71.8122L276.325 70.5092L284.543 76.8774L283.673 67.5353L287.425 67.0507L288.417 81.5257L284.256 82.2406L277.844 75.1455L281.256 83.4425L277.705 84.026Z" fill="#D7FE1E"/>
<path d="M273.934 76.5082C272.383 72.1212 265.723 73.1805 265.723 73.1805C265.723 73.1805 257.894 74.8938 259.595 82.5239C261.296 90.154 269.763 86.4194 271.25 84.9137C272.737 83.4079 275.498 80.9028 273.947 76.5157L273.934 76.5082ZM267.55 81.2365C266.648 81.4242 263.787 82.293 263.266 79.2155C262.745 76.1381 266.331 75.4027 266.331 75.4027C268.798 75.2639 270.248 75.9354 270.622 77.8157C270.996 79.696 268.443 81.0616 267.55 81.2365Z" fill="#D7FE1E"/>
<path d="M155.816 102.026C158.736 102.307 162.642 98.4799 162.218 95.6827C161.532 91.1859 149.117 85.8758 141.236 91.1092C136.873 94.0093 133.744 100.225 135.459 104.738C137.804 110.89 147.826 110.288 148.229 114.57C148.511 117.573 143.935 121.68 140.41 121.094C134.432 120.092 134.944 106.222 128.638 105.041C125.528 104.461 121.906 107.193 120.65 110.137C117.609 117.279 125.961 131.602 137.765 132.626C148.082 133.53 158.155 124.025 157.534 117.456C156.884 110.633 144.781 107.764 145.83 102.217C146.199 100.282 148.104 98.3654 149.853 98.2797C152.322 98.1597 153.15 101.766 155.826 102.028L155.816 102.026Z" fill="#D7FE1E"/>
<path d="M178.479 107.032C175.332 120.082 173.768 126.605 176.754 128.751C179.649 130.833 185.464 128.474 188.804 125.488C197.188 118.007 195.078 102.127 191.516 100.994C190.047 100.523 187.73 102.389 186.802 104.437C184.874 108.68 189.636 112.129 188.289 117.193C187.172 121.395 182.546 124.08 181.479 123.367C180.11 122.45 184.957 116.208 182.997 108.294C182.506 106.313 181.37 103.348 180.285 103.411C179.356 103.467 178.788 105.696 178.469 107.023L178.479 107.032Z" fill="#D7FE1E"/>
<path d="M155.814 102.025C158.734 102.306 162.64 98.4791 162.217 95.6818C161.531 91.185 149.116 85.875 141.234 91.1083C136.872 94.0084 133.743 100.224 135.457 104.737C137.802 110.889 147.825 110.287 148.228 114.569C148.51 117.572 143.933 121.679 140.408 121.093C134.431 120.092 134.942 106.221 128.636 105.04C125.527 104.46 121.905 107.192 120.648 110.136C117.608 117.278 125.959 131.601 137.763 132.625C148.08 133.53 158.153 124.025 157.532 117.455C156.882 110.632 144.779 107.763 145.828 102.216C146.198 100.281 148.102 98.3645 149.851 98.2788C152.32 98.1588 153.148 101.765 155.824 102.027L155.814 102.025Z" fill="#D7FE1E"/>
<path d="M178.479 107.031C175.332 120.081 173.768 126.604 176.754 128.75C179.649 130.832 185.464 128.473 188.804 125.487C197.188 118.006 195.078 102.126 191.516 100.993C190.047 100.522 187.73 102.389 186.802 104.436C184.874 108.68 189.636 112.128 188.289 117.192C187.172 121.394 182.546 124.079 181.479 123.366C180.11 122.45 184.957 116.207 182.997 108.293C182.506 106.313 181.37 103.347 180.285 103.411C179.356 103.467 178.788 105.696 178.469 107.022L178.479 107.031Z" fill="#D7FE1E"/>
<path d="M171.717 101.808C171.179 101.33 168.463 99.0653 165.463 99.7428C159.752 101.029 155.374 112.43 160.224 117.826C162.868 120.771 168.04 121.712 171.438 119.695C176.923 116.437 176.602 106.115 171.717 101.808ZM169.255 112.095C167.508 113.487 162.008 112.186 161.277 108.332C160.62 104.857 164.253 101.606 166.432 101.95C169.489 102.426 171.525 110.298 169.266 112.104L169.255 112.095Z" fill="#D7FE1E"/>
<path d="M209.888 93.0378C204.632 91.9616 199.848 96.5847 198.323 100.656C196.517 105.493 200.065 107.489 199.05 113.521C197.663 121.773 189.819 125.105 191.298 128.047C192.191 129.825 196.021 130.526 198.181 129.146C201.525 126.993 199.063 120.992 203.221 117.385C204.594 116.193 206.674 115.276 207.464 115.922C209.094 117.249 203.488 123.866 205.918 127.819C207.007 129.579 209.577 130.635 211.414 130.012C216.518 128.28 217.732 112.935 213.041 110.268C211.186 109.214 208.621 110.257 208.472 109.724C208.222 108.832 215.977 107.74 217.332 103.606C218.494 100.049 214.975 94.0805 209.878 93.0378H209.888ZM206.49 105.949C204.525 105.822 203.345 103.986 203.209 103.756C203.125 103.622 201.919 101.62 203.008 99.9196C204.807 97.1124 211.819 96.7849 213.129 98.6847C214.532 100.707 210.057 106.19 206.49 105.949Z" fill="#D7FE1E"/>
<mask id="mask2_45_1555" style="mask-type:luminance" maskUnits="userSpaceOnUse" x="1" y="1" width="318" height="143">
<path d="M305.601 1.1718L1.67694 37.6162L14.3441 143.406L318.268 106.961L305.601 1.1718Z" fill="white"/>
</mask>
<g mask="url(#mask2_45_1555)">
<path d="M49.6652 72.0635L48.9291 78.4303L56.5501 76.1145L58.2679 83.6519C58.2679 83.6519 53.3127 86.9617 48.1877 86.2248C44.7312 85.7257 41.1969 83.393 39.0488 76.9688C35.0204 64.9106 45.2181 60.4777 52.0073 61.4687C54.2012 61.782 56.041 62.6609 56.9257 64.0291L61.1762 55.754C58.8179 54.9037 56.3772 54.3021 53.8941 53.9589C45.9343 52.8153 33.6553 53.6671 28.6538 67.9485C21.5436 88.2541 36.2976 94.269 44.0915 95.3948C44.7315 95.4823 45.293 95.5436 45.8131 95.5761C52.8235 95.9955 63.2077 95.5129 68.3589 87.9769L64.8577 69.2526L49.6652 72.0635Z" fill="#00C65C"/>
<path d="M100.902 71.4256C103.807 70.926 110.204 68.6688 111.272 64.1746C112.339 59.6802 103.066 58.1082 103.066 58.1082L92.7793 56.5916L87.2559 89.9663C87.2559 89.9663 89.553 90.4063 93.1759 90.9259C94.6371 91.1388 96.3128 91.3598 98.139 91.5718C104.498 92.3061 112.844 91.92 114.266 83.6339C115.689 75.3482 100.902 71.4256 100.902 71.4256ZM95.9369 69.3999L97.1367 61.2512L97.326 61.2789C98.5762 61.444 105.632 62.5858 105.261 65.1095C104.852 67.8679 95.9351 69.3844 95.9351 69.3844L95.9369 69.3999ZM95.0319 75.5381C95.4222 75.5858 95.8053 75.6343 96.1839 75.6898C103.012 76.6697 108.478 78.9409 107.927 82.6991C107.351 86.6086 101.371 85.7757 101.214 85.7536L93.4914 84.6003L95.0319 75.5381Z" fill="#00C65C"/>
<path d="M127.05 77.3542C126.557 77.2812 126.048 77.2192 125.533 77.1677L124.791 77.0769C116.069 75.8232 119.852 69.4785 122.059 69.425C123.609 69.3871 129.677 70.2158 133.351 70.7423C135.045 70.9865 136.234 71.1652 136.234 71.1652L137.149 61.6331L123.689 59.6494C123.689 59.6494 112.625 58.8058 112.557 69.2065C112.489 79.6074 118.849 80.4484 124.377 81.5591C129.906 82.6697 132.583 83.1489 132.6 85.7112C132.617 88.2735 129.37 88.9747 126.172 88.6872C126.07 88.6804 125.971 88.6671 125.854 88.6561C122.72 88.2063 119.138 85.0256 119.138 85.0256L116.442 90.0083C116.442 90.0083 120.433 93.6782 125.81 94.4513C126.032 94.4846 126.249 94.509 126.472 94.5325C132.182 95.08 139.265 92.2926 140.088 87.3114C140.918 82.5966 135.797 78.6082 127.05 77.3542Z" fill="#00C65C"/>
<path d="M161.145 51.9165L159.818 47.5958L124.402 51.5056L125.864 56.9253L140.601 55.4668L143.184 85.9006L152.882 85.3678L146.616 55.2748L161.145 51.9165Z" fill="#00C65C"/>
<path d="M170.14 57.4532C170.14 57.4532 156.667 55.6634 154.888 72.3903C153.861 82.2133 158.824 85.6128 163.771 86.3205C167.247 86.8204 170.709 85.9927 172.051 85.1356C175.3 83.0636 181.171 79.8048 181.277 69.8026C181.382 59.8004 170.14 57.4532 170.14 57.4532ZM175.227 70.235C174.723 74.3278 169.863 75.3831 168.325 75.1581L168.3 75.161C168.088 75.1296 167.814 75.0996 167.501 75.0553C165.486 74.7645 161.846 73.8431 162.684 68.1446C163.655 61.5575 169.723 62.4051 169.809 62.4168C173.822 63.8037 175.733 66.1483 175.229 70.2474L175.227 70.235Z" fill="#00C65C"/>
<path d="M202.542 49.3803L199.16 59.6839L190.781 50.5921L184.994 51.9003L184.125 90.4659L192.734 90.6409L191.659 59.9534L200.53 72.3602L205.019 60.5502L206.405 91.7892L215.245 90.4018L210.042 48.4242L202.542 49.3803Z" fill="#00C65C"/>
<path d="M236.372 42.946C235.591 41.0549 233.623 40.1253 231.136 39.7588C224.054 38.7431 212.763 42.4597 212.763 42.4597L216.866 74.885L224.416 74.2946L220.905 63.0596C222.207 62.283 239.392 50.2107 236.372 42.946ZM225.657 44.0859C227.156 44.3 228.325 45.045 228.498 46.7789C229.012 52.098 219.35 59.2895 219.35 59.2895L218.071 45.4525C218.071 45.4525 222.551 43.6425 225.657 44.0859Z" fill="#00C65C"/>
<path d="M252.401 61.0816C252.401 61.0816 249.814 69.0816 243.619 68.2997C243.402 68.2722 243.197 68.2463 242.999 68.2167C237.48 67.423 238.287 66.1196 238.287 66.1196L252.237 57.5856C252.237 57.5856 251.239 51.4047 244.959 50.5132C243.21 50.3004 241.436 50.4201 239.731 50.866C228.737 53.4854 229.088 64.1763 230.616 67.5184C231.831 70.1702 234.103 74.5569 239.602 75.3465C241.253 75.5584 242.928 75.4907 244.556 75.1464C253.765 73.3489 254.942 63.5051 254.942 63.5051L252.401 61.0816ZM247.718 57.258L237.458 62.9837C236.985 61.9 235.594 54.1155 241.097 53.4903C241.796 53.4031 242.503 53.4072 243.201 53.5026C244.235 53.6277 245.211 54.0485 246.012 54.7146C246.814 55.3806 247.406 56.2637 247.718 57.258Z" fill="#00C65C"/>
<path d="M289.303 58.4721L291.04 50.8325L269.099 49.242C269.099 49.242 275.072 43.4129 273.25 36.3448C272.85 34.7893 271.641 34.0017 269.956 33.7596C263.979 32.9012 251.992 38.8498 248.62 41.3963L260.932 71.7125L267.406 68.5735L262.238 59.8181L265.237 55.7317L289.303 58.4721ZM263.66 40.7017C266.499 47.1062 259.934 54.0647 259.934 54.0647L255.656 41.7309C255.656 41.7309 258.419 37.7609 261.014 38.1334C261.966 38.2493 262.898 38.9818 263.66 40.7017Z" fill="#00C65C"/>
<path d="M103.976 107.173C103.768 106.894 103.541 106.633 103.296 106.388C102.793 105.922 102.266 105.487 101.748 105.032C101.338 104.673 100.929 104.302 100.52 103.92C100.283 103.727 100.064 103.512 99.8643 103.281C99.2523 102.456 98.6556 101.626 98.0696 100.783C97.4837 99.9403 96.9176 99.05 96.3227 98.2047C95.6494 97.2621 94.9751 96.3122 94.2359 95.421C92.9695 93.8911 91.5912 92.446 90.4131 90.8394C89.5109 89.6149 88.603 88.3943 87.7447 87.1426C86.8081 85.7755 85.9876 84.3322 85.2921 82.8278C84.8038 81.7979 84.6162 80.6507 84.7511 79.5187C84.9407 78.1447 85.2393 76.7879 85.6441 75.4612C86.0641 73.9799 86.5914 72.5311 87.2215 71.1263C87.6742 70.1395 88.1347 69.156 88.6028 68.1758C88.6934 68.0079 88.7329 67.8172 88.7163 67.6271C88.6996 67.437 88.6277 67.2561 88.5094 67.1064C88.1749 66.6753 87.7548 66.3181 87.2757 66.0572C86.3192 65.4999 85.3055 65.0469 84.2523 64.706C81.9596 63.9257 79.6163 63.3025 77.2388 62.841C76.0794 62.5729 74.8909 62.4519 73.7014 62.4807C73.406 62.5077 73.1144 62.566 72.8313 62.6544C72.7238 62.6789 72.6273 62.7381 72.5567 62.8228C72.4861 62.9076 72.4452 63.0131 72.4404 63.1234C72.3772 63.9091 72.3131 64.6886 72.2497 65.4743C72.1977 66.1704 72.1741 66.8664 72.1127 67.5636C72.0146 68.7158 71.933 69.8754 71.7772 71.0188C71.6324 72.1618 71.429 73.2965 71.1675 74.4185C70.8927 75.5415 70.5207 76.6415 70.1387 77.7363C69.8714 78.5192 69.5528 79.2835 69.1849 80.0244C68.8794 80.583 68.5332 81.1184 68.149 81.6261C67.3209 82.8214 66.5842 84.0776 65.9452 85.384C65.3926 86.4358 64.9763 87.5539 64.7066 88.7112C64.5666 89.3002 64.5568 89.9128 64.6779 90.5056C64.7989 91.0992 65.048 91.6594 65.4076 92.1456C65.9802 92.9132 66.6501 93.6024 67.4003 94.1969C68.101 94.7904 68.8304 95.3614 69.5318 95.9613C70.4923 96.7705 71.3876 97.6545 72.2093 98.6043C73.0233 99.4947 73.7476 100.463 74.3719 101.495C74.7972 102.286 75.3508 102.999 76.0099 103.608C76.4611 104.01 76.8911 104.448 77.349 104.828C77.6471 105.081 77.986 105.283 78.2977 105.52C78.4459 105.622 78.5801 105.744 78.6967 105.881C79.1774 106.505 79.6436 107.139 80.1185 107.765C80.5742 108.376 81.2419 108.794 81.9901 108.937C82.1866 108.992 82.3927 109.007 82.5949 108.977C82.7971 108.947 82.9906 108.874 83.1626 108.764C83.3949 108.601 83.6033 108.396 83.847 108.197L83.9881 108.429C84.3932 109.204 85.0171 109.842 85.782 110.264C86.1186 110.457 86.5012 110.552 86.8884 110.542C87.2756 110.531 87.6526 110.416 87.9785 110.206C87.9976 110.19 88.0196 110.178 88.0434 110.171C88.0672 110.163 88.0921 110.161 88.1168 110.163C88.1415 110.166 88.1655 110.174 88.1872 110.186C88.209 110.199 88.228 110.215 88.2432 110.235C88.7017 110.652 89.266 110.936 89.8747 111.056C90.2535 111.14 90.6465 111.14 91.026 111.057C91.4055 110.973 91.7616 110.808 92.0708 110.572C92.3105 110.395 92.2943 110.391 92.5278 110.574C92.9803 110.967 93.5157 111.253 94.0944 111.41C95.1698 111.665 96.1244 111.482 96.8464 110.573C96.9366 110.458 97.0078 110.5 97.1033 110.564C97.8605 111.09 98.7646 111.36 99.6859 111.338C100.324 111.334 100.96 111.249 101.576 111.083C102.877 110.719 103.787 109.939 104.156 108.6C104.282 108.103 104.33 107.612 103.976 107.173ZM78.6288 70.1972C72.9356 68.2115 73.3719 65.4499 73.9252 64.4983C74.4787 63.5467 77.6941 64.0087 81.3637 65.0524C85.0334 66.0962 86.8808 66.908 86.4461 67.8516C86.0113 68.7953 85.528 72.369 78.6288 70.1972Z" fill="#00C65C"/>
<path d="M82.5073 68.1686C82.3645 68.5007 80.9556 69.117 79.5266 68.6457C78.5195 68.3065 77.6064 67.0424 77.7817 66.7191C77.957 66.3956 79.423 65.993 80.6021 66.3493C81.7812 66.7057 82.6532 67.836 82.5073 68.1686Z" fill="#00C65C"/>
</g>
<path d="M230.841 83.8489L221.815 86.2782L222.341 96.2934L231.359 96.2735L232.562 93.1037L225.786 93.7676L225.485 92.2404L232.324 90.5851L231.698 88.2585L225.052 90.2225L224.82 88.1399L231.128 85.7306L230.841 83.8489Z" fill="#00C65C"/>
<path d="M237.405 82.7943C235.707 82.5399 233.256 83.55 233.256 83.55L234.444 96.0677C234.444 96.0677 241.359 94.2943 241.242 89.4224C241.125 84.5509 239.092 83.0514 237.395 82.797L237.405 82.7943ZM238.607 88.49C238.836 90.9675 236.329 91.7297 236.329 91.7297L235.931 86.2225C235.931 86.2225 238.379 86.0124 238.607 88.49Z" fill="#00C65C"/>
<path d="M242.615 85.5808L242.356 93.9353L245.701 93.035L245.359 85.291L242.615 85.5808Z" fill="#00C65C"/>
<path d="M242.536 84.0985C243.656 83.7969 244.365 82.8075 244.118 81.8887C243.871 80.97 242.762 80.4698 241.641 80.7714C240.52 81.0732 239.812 82.0625 240.059 82.9812C240.306 83.9 241.414 84.4003 242.536 84.0985Z" fill="#00C65C"/>
<path d="M258.21 80.9401L260.689 88.5358L257.225 89.4024L255.691 82.0667L258.21 80.9401Z" fill="#00C65C"/>
<path d="M257.036 79.8305C258.156 79.5287 258.865 78.5395 258.618 77.6207C258.371 76.702 257.262 76.2017 256.142 76.5034C255.02 76.8051 254.312 77.7944 254.559 78.7132C254.806 79.6319 255.914 80.1321 257.036 79.8305Z" fill="#00C65C"/>
<path d="M244.868 80.2505L245.276 83.3581L248.519 82.4852L248.945 92.1655L252.268 91.1841L251.104 81.6035L254.125 79.9039L252.807 77.4021L244.868 80.2505Z" fill="#00C65C"/>
<path d="M278.606 84.026L273.726 71.8122L277.226 70.5092L285.445 76.8774L284.575 67.5353L288.326 67.0507L289.319 81.5257L285.158 82.2406L278.745 75.1455L282.157 83.4425L278.606 84.026Z" fill="#00C65C"/>
<path d="M274.836 76.5082C273.284 72.1212 266.625 73.1805 266.625 73.1805C266.625 73.1805 258.795 74.8938 260.496 82.5239C262.197 90.154 270.664 86.4194 272.151 84.9137C273.639 83.4079 276.4 80.9028 274.848 76.5157L274.836 76.5082ZM268.451 81.2365C267.55 81.4242 264.689 82.293 264.168 79.2155C263.647 76.1381 267.232 75.4027 267.232 75.4027C269.7 75.2639 271.149 75.9354 271.523 77.8157C271.897 79.696 269.344 81.0616 268.451 81.2365Z" fill="#00C65C"/>
<path d="M156.717 102.026C159.638 102.307 163.543 98.4799 163.12 95.6827C162.434 91.1859 150.019 85.8758 142.138 91.1092C137.775 94.0093 134.645 100.225 136.361 104.738C138.705 110.89 148.728 110.288 149.131 114.57C149.412 117.573 144.836 121.68 141.311 121.094C135.334 120.092 135.845 106.222 129.54 105.041C126.43 104.461 122.808 107.193 121.551 110.137C118.511 117.279 126.862 131.602 138.666 132.626C148.983 133.53 159.056 124.025 158.435 117.456C157.785 110.633 145.682 107.764 146.731 102.217C147.101 100.282 149.006 98.3654 150.754 98.2797C153.223 98.1597 154.052 101.766 156.727 102.028L156.717 102.026Z" fill="#00C65C"/>
<path d="M179.38 107.032C176.233 120.082 174.67 126.605 177.655 128.751C180.55 130.833 186.365 128.474 189.705 125.488C198.09 118.007 195.98 102.127 192.417 100.994C190.948 100.523 188.631 102.389 187.704 104.437C185.776 108.68 190.537 112.129 189.19 117.193C188.073 121.395 183.447 124.08 182.38 123.367C181.011 122.45 185.859 116.208 183.898 108.294C183.408 106.313 182.271 103.348 181.187 103.411C180.257 103.467 179.689 105.696 179.37 107.023L179.38 107.032Z" fill="#00C65C"/>
<path d="M156.715 102.025C159.636 102.306 163.542 98.4791 163.118 95.6818C162.432 91.185 150.017 85.875 142.136 91.1083C137.773 94.0084 134.644 100.224 136.359 104.737C138.703 110.889 148.726 110.287 149.129 114.569C149.411 117.572 144.835 121.679 141.309 121.093C135.332 120.092 135.843 106.221 129.538 105.04C126.428 104.46 122.806 107.192 121.55 110.136C118.509 117.278 126.861 131.601 138.665 132.625C148.981 133.53 159.054 124.025 158.433 117.455C157.783 110.632 145.68 107.763 146.729 102.216C147.099 100.281 149.004 98.3645 150.752 98.2788C153.221 98.1588 154.05 101.765 156.725 102.027L156.715 102.025Z" fill="#00C65C"/>
<path d="M179.38 107.031C176.233 120.081 174.67 126.604 177.655 128.75C180.55 130.832 186.365 128.473 189.705 125.487C198.09 118.006 195.98 102.126 192.417 100.993C190.948 100.522 188.631 102.389 187.704 104.436C185.776 108.68 190.537 112.128 189.19 117.192C188.073 121.394 183.447 124.079 182.38 123.366C181.011 122.45 185.859 116.207 183.898 108.293C183.408 106.313 182.271 103.347 181.187 103.411C180.257 103.467 179.689 105.696 179.37 107.022L179.38 107.031Z" fill="#00C65C"/>
<path d="M172.619 101.808C172.081 101.33 169.365 99.0653 166.364 99.7428C160.654 101.029 156.275 112.43 161.125 117.826C163.77 120.771 168.941 121.712 172.339 119.695C177.824 116.437 177.504 106.115 172.619 101.808ZM170.156 112.095C168.409 113.487 162.91 112.186 162.179 108.332C161.522 104.857 165.154 101.606 167.334 101.95C170.391 102.426 172.427 110.298 170.167 112.104L170.156 112.095Z" fill="#00C65C"/>
<path d="M210.789 93.0378C205.534 91.9616 200.749 96.5847 199.225 100.656C197.418 105.493 200.966 107.489 199.951 113.521C198.564 121.773 190.721 125.105 192.199 128.047C193.092 129.825 196.923 130.526 199.082 129.146C202.427 126.993 199.964 120.992 204.122 117.385C205.496 116.193 207.575 115.276 208.365 115.922C209.996 117.249 204.389 123.866 206.819 127.819C207.908 129.579 210.478 130.635 212.315 130.012C217.42 128.28 218.633 112.935 213.942 110.268C212.087 109.214 209.522 110.257 209.374 109.724C209.123 108.832 216.879 107.74 218.234 103.606C219.396 100.049 215.876 94.0805 210.779 93.0378H210.789ZM207.392 105.949C205.426 105.822 204.247 103.986 204.11 103.756C204.027 103.622 202.82 101.62 203.909 99.9196C205.709 97.1124 212.721 96.7849 214.03 98.6847C215.434 100.707 210.958 106.19 207.392 105.949Z" fill="#00C65C"/>
<mask id="mask3_45_1555" style="mask-type:luminance" maskUnits="userSpaceOnUse" x="0" y="0" width="318" height="143">
<path d="M304.7 0.269704L0.775528 36.7141L13.4427 142.503L317.367 106.059L304.7 0.269704Z" fill="white"/>
</mask>
<g mask="url(#mask3_45_1555)">
<path d="M48.7638 71.1614L48.0277 77.5282L55.6487 75.2124L57.3665 82.7498C57.3665 82.7498 52.4113 86.0596 47.2863 85.3227C43.8298 84.8236 40.2955 82.4909 38.1474 76.0667C34.119 64.0085 44.3167 59.5756 51.1059 60.5666C53.2998 60.8799 55.1396 61.7588 56.0243 63.127L60.2748 54.8519C57.9165 54.0016 55.4758 53.4 52.9927 53.0568C45.0329 51.9132 32.7538 52.765 27.7524 67.0464C20.6422 87.352 35.3962 93.3669 43.1901 94.4927C43.8301 94.5802 44.3916 94.6415 44.9117 94.674C51.9221 95.0934 62.3063 94.6108 67.4575 87.0748L63.9563 68.3505L48.7638 71.1614Z" fill="#222222"/>
<path d="M100 70.5235C102.906 70.0239 109.303 67.7667 110.37 63.2725C111.438 58.7781 102.165 57.2061 102.165 57.2061L91.8779 55.6895L86.3545 89.0642C86.3545 89.0642 88.6516 89.5039 92.2745 90.024C93.7357 90.2367 95.4114 90.4577 97.2376 90.6697C103.596 91.404 111.942 91.0179 113.365 82.7318C114.787 74.4461 100 70.5235 100 70.5235ZM95.0355 68.4978L96.2353 60.3491L96.4246 60.3768C97.6748 60.5419 104.731 61.6837 104.36 64.2074C103.95 66.9658 95.0337 68.4823 95.0337 68.4823L95.0355 68.4978ZM94.1305 74.636C94.5208 74.6837 94.9039 74.7322 95.2825 74.7877C102.111 75.7676 107.577 78.0388 107.026 81.797C106.449 85.7065 100.469 84.8736 100.312 84.8515L92.59 83.6982L94.1305 74.636Z" fill="#222222"/>
<path d="M126.149 76.4521C125.655 76.3791 125.147 76.3171 124.631 76.2656L123.89 76.1748C115.168 74.9211 118.951 68.5764 121.157 68.5229C122.708 68.485 128.775 69.3137 132.449 69.8402C134.144 70.0844 135.333 70.2631 135.333 70.2631L136.248 60.731L122.788 58.7473C122.788 58.7473 111.723 57.9037 111.656 68.3044C111.588 78.7053 117.947 79.5463 123.476 80.657C129.004 81.7676 131.681 82.2468 131.698 84.8091C131.716 87.3714 128.469 88.0726 125.271 87.7851C125.169 87.7783 125.07 87.765 124.952 87.754C121.819 87.3042 118.237 84.1235 118.237 84.1235L115.541 89.1062C115.541 89.1062 119.531 92.7761 124.909 93.5492C125.131 93.5826 125.347 93.6069 125.571 93.6304C131.28 94.1779 138.363 91.3905 139.186 86.4093C140.017 81.6945 134.896 77.7061 126.149 76.4521Z" fill="#222222"/>
<path d="M160.243 51.0144L158.917 46.6937L123.501 50.6035L124.962 56.0232L139.699 54.5647L142.283 84.9985L151.981 84.4657L145.714 54.3727L160.243 51.0144Z" fill="#222222"/>
<path d="M169.239 56.5511C169.239 56.5511 155.765 54.7613 153.987 71.4882C152.96 81.3112 157.922 84.7107 162.87 85.4184C166.346 85.9184 169.807 85.0906 171.15 84.2335C174.398 82.1615 180.27 78.9027 180.375 68.9005C180.481 58.8983 169.239 56.5511 169.239 56.5511ZM174.326 69.3329C173.821 73.4257 168.962 74.481 167.424 74.256L167.399 74.2589C167.187 74.2275 166.913 74.1975 166.599 74.1532C164.585 73.8624 160.945 72.941 161.783 67.2425C162.754 60.6554 168.821 61.503 168.908 61.5147C172.921 62.9016 174.832 65.2462 174.328 69.3453L174.326 69.3329Z" fill="#222222"/>
<path d="M201.641 48.4782L198.258 58.7818L189.88 49.69L184.093 50.9982L183.224 89.5642L191.832 89.7385L190.758 59.0513L199.629 71.4581L204.118 59.6481L205.503 90.8871L214.343 89.4995L209.14 47.5221L201.641 48.4782Z" fill="#222222"/>
<path d="M235.47 42.0439C234.69 40.1528 232.721 39.2232 230.234 38.8567C223.153 37.841 211.862 41.5576 211.862 41.5576L215.965 73.9829L223.515 73.3925L220.004 62.1575C221.306 61.3809 238.49 49.3086 235.47 42.0439ZM224.755 43.1838C226.254 43.3979 227.424 44.1429 227.597 45.8768C228.11 51.1959 218.448 58.3874 218.448 58.3874L217.169 44.5504C217.169 44.5504 221.649 42.7404 224.755 43.1838Z" fill="#222222"/>
<path d="M251.499 60.1795C251.499 60.1795 248.912 68.1795 242.718 67.3976C242.501 67.3701 242.296 67.3442 242.098 67.3146C236.578 66.5209 237.386 65.2175 237.386 65.2175L251.335 56.6835C251.335 56.6835 250.337 50.5026 244.057 49.6111C242.309 49.3983 240.535 49.518 238.83 49.9639C227.836 52.5833 228.187 63.2742 229.715 66.6163C230.929 69.2681 233.202 73.6548 238.701 74.4444C240.352 74.6563 242.026 74.5886 243.654 74.2443C252.864 72.4468 254.04 62.603 254.04 62.603L251.499 60.1795ZM246.816 56.3559L236.557 62.0816C236.083 60.9979 234.693 53.2134 240.196 52.5882C240.894 52.501 241.602 52.5051 242.3 52.6005C243.333 52.7256 244.31 53.1464 245.111 53.8125C245.912 54.4785 246.505 55.3616 246.816 56.3559Z" fill="#222222"/>
<path d="M288.402 57.57L290.138 49.9304L268.198 48.3399C268.198 48.3399 274.171 42.5108 272.349 35.4427C271.949 33.8872 270.74 33.0996 269.055 32.8575C263.078 31.9991 251.091 37.9477 247.719 40.4942L260.031 70.8104L266.505 67.6714L261.336 58.916L264.335 54.8296L288.402 57.57ZM262.759 39.7996C265.597 46.2041 259.032 53.1626 259.032 53.1626L254.754 40.8288C254.754 40.8288 257.518 36.8588 260.112 37.2313C261.064 37.3472 261.996 38.0797 262.759 39.7996Z" fill="#222222"/>
<path d="M103.074 106.271C102.867 105.992 102.64 105.731 102.395 105.486C101.892 105.02 101.364 104.585 100.847 104.13C100.437 103.77 100.027 103.4 99.6183 103.018C99.3812 102.825 99.1621 102.61 98.9629 102.379C98.3509 101.554 97.7541 100.724 97.1682 99.8807C96.5823 99.0382 96.0162 98.1479 95.4213 97.3026C94.7479 96.36 94.0737 95.4101 93.3345 94.5189C92.0681 92.989 90.6898 91.5439 89.5117 89.9371C88.6095 88.7127 87.7015 87.4922 86.8433 86.2405C85.9067 84.8734 85.0862 83.4301 84.3907 81.9257C83.9024 80.8958 83.7148 79.7486 83.8496 78.6166C84.0393 77.2426 84.3379 75.8858 84.7427 74.5591C85.1627 73.0778 85.69 71.629 86.3201 70.2242C86.7728 69.2374 87.2333 68.2539 87.7014 67.2737C87.792 67.1058 87.8314 66.9151 87.8149 66.725C87.7982 66.5349 87.7263 66.354 87.608 66.2043C87.2735 65.7732 86.8534 65.416 86.3743 65.1551C85.4177 64.5978 84.4041 64.1448 83.3509 63.8039C81.0582 63.0236 78.7149 62.4004 76.3374 61.9389C75.178 61.6708 73.9895 61.5498 72.8 61.5786C72.5046 61.6056 72.213 61.6639 71.9299 61.7523C71.8224 61.7768 71.7259 61.836 71.6553 61.9207C71.5847 62.0055 71.5438 62.111 71.539 62.2213C71.4757 63.007 71.4117 63.7865 71.3483 64.5722C71.2963 65.2683 71.2727 65.9643 71.2113 66.6615C71.1132 67.8137 71.0316 68.9733 70.8758 70.1167C70.731 71.2597 70.5275 72.3944 70.2661 73.5164C69.9913 74.6394 69.6193 75.7394 69.2373 76.8342C68.97 77.6171 68.6514 78.3814 68.2835 79.1223C67.978 79.6809 67.6318 80.2163 67.2476 80.724C66.4195 81.9193 65.6828 83.1755 65.0438 84.4819C64.4912 85.5337 64.0749 86.6518 63.8052 87.8091C63.6652 88.3981 63.6554 89.0107 63.7764 89.604C63.8975 90.1973 64.1466 90.7573 64.5061 91.2435C65.0788 92.0111 65.7487 92.7003 66.4989 93.2948C67.1995 93.8883 67.929 94.4593 68.6304 95.0592C69.5909 95.8684 70.4862 96.7524 71.3079 97.7022C72.1219 98.5926 72.8462 99.5605 73.4705 100.593C73.8958 101.384 74.4494 102.097 75.1085 102.706C75.5597 103.108 75.9897 103.546 76.4476 103.926C76.7456 104.179 77.0846 104.381 77.3963 104.618C77.5445 104.72 77.6787 104.842 77.7952 104.979C78.276 105.603 78.7422 106.237 79.217 106.863C79.6728 107.474 80.3405 107.892 81.0887 108.034C81.2851 108.09 81.4913 108.105 81.6935 108.075C81.8957 108.045 82.0892 107.972 82.2612 107.862C82.4935 107.699 82.7019 107.494 82.9456 107.295L83.0867 107.527C83.4918 108.301 84.1157 108.94 84.8806 109.362C85.2172 109.554 85.5998 109.65 85.987 109.64C86.3742 109.629 86.7512 109.514 87.0771 109.304C87.0962 109.288 87.1182 109.276 87.142 109.268C87.1658 109.261 87.1907 109.259 87.2154 109.261C87.2401 109.264 87.2641 109.272 87.2858 109.284C87.3075 109.296 87.3266 109.313 87.3418 109.333C87.8003 109.75 88.3646 110.034 88.9732 110.154C89.3525 110.238 89.7454 110.238 90.1247 110.155C90.5041 110.071 90.8602 109.906 91.1694 109.67C91.4091 109.493 91.3929 109.489 91.6264 109.672C92.0789 110.065 92.6143 110.351 93.193 110.508C94.2684 110.763 95.223 110.58 95.945 109.671C96.0352 109.556 96.1064 109.598 96.2019 109.662C96.9591 110.188 97.8632 110.458 98.7844 110.436C99.4226 110.432 100.058 110.346 100.675 110.181C101.975 109.817 102.886 109.037 103.255 107.698C103.381 107.201 103.429 106.71 103.074 106.271ZM77.7274 69.2951C72.0342 67.3094 72.4704 64.5478 73.0238 63.5962C73.5773 62.6446 76.7927 63.1066 80.4623 64.1503C84.132 65.1941 85.9794 66.0059 85.5447 66.9495C85.1099 67.8932 84.6266 71.4669 77.7274 69.2951Z" fill="#222222"/>
<path d="M81.6059 67.2665C81.4631 67.5986 80.0542 68.2149 78.6252 67.7436C77.6181 67.4044 76.705 66.1403 76.8803 65.817C77.0556 65.4935 78.5216 65.0909 79.7007 65.4472C80.8798 65.8036 81.7518 66.9339 81.6059 67.2665Z" fill="#222222"/>
</g>
<path d="M229.939 82.9468L220.914 85.3761L221.44 95.3913L230.458 95.3714L231.661 92.2016L224.884 92.8655L224.583 91.3383L231.422 89.6834L230.797 87.3564L224.151 89.3205L223.919 87.2378L230.227 84.8285L229.939 82.9468Z" fill="#222222"/>
<path d="M236.503 81.8923C234.805 81.6379 232.354 82.648 232.354 82.648L233.542 95.1658C233.542 95.1658 240.458 93.3923 240.341 88.5204C240.224 83.649 238.191 82.1495 236.494 81.8951L236.503 81.8923ZM237.706 87.588C237.935 90.0656 235.427 90.8277 235.427 90.8277L235.03 85.3206C235.03 85.3206 237.478 85.1104 237.706 87.588Z" fill="#222222"/>
<path d="M241.714 84.6787L241.455 93.0332L244.8 92.1329L244.457 84.3889L241.714 84.6787Z" fill="#222222"/>
<path d="M241.634 83.1964C242.755 82.8948 243.463 81.9054 243.216 80.9866C242.969 80.0679 241.861 79.5677 240.74 79.8693C239.619 80.1711 238.91 81.1604 239.157 82.0791C239.404 82.9979 240.513 83.4982 241.634 83.1964Z" fill="#222222"/>
<path d="M257.309 80.0381L259.788 87.6338L256.324 88.5004L254.789 81.1648L257.309 80.0381Z" fill="#222222"/>
<path d="M256.134 78.9284C257.255 78.6266 257.963 77.6374 257.716 76.7186C257.469 75.7999 256.361 75.2996 255.24 75.6013C254.119 75.903 253.41 76.8923 253.657 77.8111C253.904 78.7298 255.013 79.23 256.134 78.9284Z" fill="#222222"/>
<path d="M243.966 79.3484L244.375 82.456L247.618 81.5831L248.043 91.2634L251.367 90.282L250.202 80.7014L253.224 79.0018L251.906 76.5L243.966 79.3484Z" fill="#222222"/>
<path d="M277.705 83.124L272.825 70.9102L276.325 69.6072L284.543 75.9754L283.673 66.6334L287.425 66.1487L288.417 80.6237L284.256 81.3386L277.844 74.2435L281.256 82.5405L277.705 83.124Z" fill="#222222"/>
<path d="M273.934 75.6063C272.383 71.2192 265.723 72.2785 265.723 72.2785C265.723 72.2785 257.894 73.9919 259.595 81.6219C261.296 89.252 269.763 85.5174 271.25 84.0117C272.737 82.506 275.498 80.0008 273.947 75.6138L273.934 75.6063ZM267.55 80.3345C266.648 80.5222 263.787 81.391 263.266 78.3135C262.745 75.2362 266.331 74.5007 266.331 74.5007C268.798 74.362 270.248 75.0335 270.622 76.9137C270.996 78.794 268.443 80.1596 267.55 80.3345Z" fill="#222222"/>
<path d="M155.816 101.124C158.736 101.405 162.642 97.5778 162.218 94.7806C161.532 90.2838 149.117 84.9737 141.236 90.2071C136.873 93.1072 133.744 99.3224 135.459 103.835C137.804 109.988 147.826 109.386 148.229 113.668C148.511 116.671 143.935 120.778 140.41 120.192C134.432 119.19 134.944 105.32 128.638 104.139C125.528 103.559 121.906 106.291 120.65 109.235C117.609 116.377 125.961 130.7 137.765 131.724C148.082 132.628 158.155 123.123 157.534 116.554C156.884 109.73 144.781 106.862 145.83 101.315C146.199 99.3802 148.104 97.4633 149.853 97.3776C152.322 97.2576 153.15 100.864 155.826 101.126L155.816 101.124Z" fill="#222222"/>
<path d="M178.479 106.13C175.332 119.179 173.768 125.703 176.754 127.849C179.649 129.931 185.464 127.572 188.804 124.586C197.188 117.105 195.078 101.225 191.516 100.092C190.047 99.621 187.73 101.487 186.802 103.535C184.874 107.778 189.636 111.227 188.289 116.291C187.172 120.493 182.546 123.177 181.479 122.465C180.11 121.548 184.957 115.306 182.997 107.392C182.506 105.411 181.37 102.446 180.285 102.509C179.356 102.565 178.788 104.794 178.469 106.121L178.479 106.13Z" fill="#222222"/>
<path d="M155.814 101.123C158.734 101.404 162.64 97.577 162.217 94.7797C161.531 90.2829 149.116 84.9729 141.234 90.2058C136.872 93.1063 133.743 99.3215 135.457 103.835C137.802 109.987 147.825 109.385 148.228 113.667C148.51 116.67 143.933 120.777 140.408 120.191C134.431 119.189 134.942 105.319 128.636 104.138C125.527 103.558 121.905 106.29 120.648 109.234C117.608 116.376 125.959 130.699 137.763 131.723C148.08 132.627 158.153 123.122 157.532 116.553C156.882 109.73 144.779 106.861 145.828 101.314C146.198 99.3793 148.102 97.4624 149.851 97.3767C152.32 97.2567 153.148 100.863 155.824 101.125L155.814 101.123Z" fill="#222222"/>
<path d="M178.479 106.129C175.332 119.179 173.768 125.702 176.754 127.848C179.649 129.93 185.464 127.571 188.804 124.585C197.188 117.104 195.078 101.224 191.516 100.091C190.047 99.6201 187.73 101.486 186.802 103.534C184.874 107.777 189.636 111.226 188.289 116.29C187.172 120.492 182.546 123.177 181.479 122.464C180.11 121.547 184.957 115.305 182.997 107.391C182.506 105.41 181.37 102.445 180.285 102.509C179.356 102.564 178.788 104.793 178.469 106.12L178.479 106.129Z" fill="#222222"/>
<path d="M171.717 100.906C171.179 100.427 168.463 98.1632 165.463 98.8407C159.752 100.127 155.374 111.528 160.224 116.924C162.868 119.869 168.04 120.81 171.438 118.793C176.923 115.535 176.602 105.213 171.717 100.906ZM169.255 111.193C167.508 112.585 162.008 111.284 161.277 107.43C160.62 103.955 164.253 100.703 166.432 101.048C169.489 101.524 171.525 109.396 169.266 111.202L169.255 111.193Z" fill="#222222"/>
<path d="M209.888 92.1357C204.632 91.0595 199.848 95.6826 198.323 99.7536C196.517 104.59 200.065 106.587 199.05 112.619C197.663 120.871 189.819 124.203 191.298 127.145C192.191 128.923 196.021 129.624 198.181 128.243C201.525 126.091 199.063 120.09 203.221 116.483C204.594 115.291 206.674 114.374 207.464 115.02C209.094 116.347 203.488 122.964 205.918 126.916C207.007 128.677 209.577 129.733 211.414 129.11C216.518 127.377 217.732 112.032 213.041 109.366C211.186 108.312 208.621 109.355 208.472 108.822C208.222 107.93 215.977 106.837 217.332 102.704C218.494 99.1474 214.975 93.1784 209.878 92.1357H209.888ZM206.49 105.047C204.525 104.92 203.345 103.084 203.209 102.854C203.125 102.72 201.919 100.718 203.008 99.0175C204.807 96.2103 211.819 95.8828 213.129 97.7826C214.532 99.805 210.057 105.288 206.49 105.047Z" fill="#222222"/>
</svg>
