<svg width="32" height="32" viewBox="0 0 32 32" fill="none" xmlns="http://www.w3.org/2000/svg">
<circle cx="16" cy="16" r="15.5" stroke="black"/>
<path d="M10.4444 11H22.556C23.0572 11 23.4451 11.4393 23.3829 11.9367L22.7579 16.9367C22.7057 17.3537 22.3512 17.6667 21.931 17.6667H19.7962H13.8703H12.6666" stroke="black" stroke-linejoin="round"/>
<path d="M7.66675 9.3335H9.5281C9.9049 9.3335 10.2348 9.58634 10.3328 9.95019L12.9174 19.5502C13.0153 19.914 13.3453 20.1668 13.7221 20.1668H21.8334" stroke="black" stroke-linecap="round" stroke-linejoin="round"/>
<path d="M14.3333 23.5002C14.7936 23.5002 15.1667 23.1271 15.1667 22.6668C15.1667 22.2066 14.7936 21.8335 14.3333 21.8335C13.8731 21.8335 13.5 22.2066 13.5 22.6668C13.5 23.1271 13.8731 23.5002 14.3333 23.5002Z" stroke="black" stroke-linejoin="round"/>
<path d="M20.5833 23.5002C21.0436 23.5002 21.4167 23.1271 21.4167 22.6668C21.4167 22.2066 21.0436 21.8335 20.5833 21.8335C20.1231 21.8335 19.75 22.2066 19.75 22.6668C19.75 23.1271 20.1231 23.5002 20.5833 23.5002Z" stroke="black" stroke-linejoin="round"/>
</svg>
